<svg width="21" height="25" viewBox="0 0 21 25" fill="none" xmlns="http://www.w3.org/2000/svg">
<path d="M12.4167 1.06445V5.88342C12.4167 6.53681 12.4167 6.86351 12.5438 7.11307C12.6557 7.33259 12.8342 7.51107 13.0537 7.62292C13.3032 7.75008 13.6299 7.75008 14.2833 7.75008H19.1023M14.75 13.5833H5.41667M14.75 18.25H5.41667M7.75 8.91667H5.41667M12.4167 0.75H6.35C4.38982 0.75 3.40972 0.75 2.66103 1.13148C2.00247 1.46703 1.46703 2.00247 1.13148 2.66103C0.75 3.40972 0.75 4.38982 0.75 6.35V18.4833C0.75 20.4435 0.75 21.4236 1.13148 22.1723C1.46703 22.8309 2.00247 23.3663 2.66103 23.7019C3.40972 24.0833 4.38982 24.0833 6.35 24.0833H13.8167C15.7768 24.0833 16.7569 24.0833 17.5056 23.7019C18.1642 23.3663 18.6996 22.8309 19.0352 22.1723C19.4167 21.4236 19.4167 20.4435 19.4167 18.4833V7.75L12.4167 0.75Z" stroke="white" stroke-width="1.5" stroke-linecap="round" stroke-linejoin="round"/>
</svg>
