<svg width="14" height="15" viewBox="0 0 14 15" fill="none" xmlns="http://www.w3.org/2000/svg">
<path d="M11.6833 9.35C12.2167 10.35 12.75 10.75 12.75 10.75H0.75C0.75 10.75 2.75 9.41667 2.75 4.75C2.75 2.55 4.55 0.75 6.75 0.75C7.21667 0.75 7.61667 0.816667 8.01667 0.95M5.6167 13.4167C5.72829 13.6196 5.89233 13.7889 6.09169 13.9068C6.29106 14.0247 6.51842 14.0869 6.75003 14.0869C6.98165 14.0869 7.20901 14.0247 7.40837 13.9068C7.60773 13.7889 7.77178 13.6196 7.88337 13.4167M12.75 4.75C12.75 5.85457 11.8546 6.75 10.75 6.75C9.64543 6.75 8.75 5.85457 8.75 4.75C8.75 3.64543 9.64543 2.75 10.75 2.75C11.8546 2.75 12.75 3.64543 12.75 4.75Z" stroke="#09007A" stroke-width="1.5" stroke-linecap="round" stroke-linejoin="round"/>
</svg>
