<svg width="40" height="40" viewBox="0 0 40 40" fill="none" xmlns="http://www.w3.org/2000/svg">
<g filter="url(#filter0_i_74_874)">
<rect width="40" height="40" rx="16" fill="url(#paint0_linear_74_874)"/>
<path d="M18 23H14C12.9391 23 11.9217 23.4214 11.1716 24.1716C10.4214 24.9217 10 25.9391 10 27V29M29.7001 24.4001L28.8 24.1001M23.2 21.9001L22.3 21.6001M24.6001 26.7001L24.9001 25.8M27.1001 20.2L27.4001 19.3M27.6 26.7L27.2 25.7M24.7999 20.3L24.3999 19.3M22.3 24.6L23.3 24.2M28.7 21.7999L29.7 21.3999M29 23C29 24.6569 27.6569 26 26 26C24.3431 26 23 24.6569 23 23C23 21.3431 24.3431 20 26 20C27.6569 20 29 21.3431 29 23ZM21 15C21 17.2091 19.2091 19 17 19C14.7909 19 13 17.2091 13 15C13 12.7909 14.7909 11 17 11C19.2091 11 21 12.7909 21 15Z" stroke="white" stroke-width="2" stroke-linecap="round" stroke-linejoin="round"/>
</g>
<defs>
<filter id="filter0_i_74_874" x="0" y="-2" width="40" height="42" filterUnits="userSpaceOnUse" color-interpolation-filters="sRGB">
<feFlood flood-opacity="0" result="BackgroundImageFix"/>
<feBlend mode="normal" in="SourceGraphic" in2="BackgroundImageFix" result="shape"/>
<feColorMatrix in="SourceAlpha" type="matrix" values="0 0 0 0 0 0 0 0 0 0 0 0 0 0 0 0 0 0 127 0" result="hardAlpha"/>
<feOffset dy="-2"/>
<feGaussianBlur stdDeviation="2"/>
<feComposite in2="hardAlpha" operator="arithmetic" k2="-1" k3="1"/>
<feColorMatrix type="matrix" values="0 0 0 0 0 0 0 0 0 0 0 0 0 0 0 0 0 0 0.25 0"/>
<feBlend mode="normal" in2="shape" result="effect1_innerShadow_74_874"/>
</filter>
<linearGradient id="paint0_linear_74_874" x1="9.74359" y1="3.07692" x2="20" y2="40" gradientUnits="userSpaceOnUse">
<stop stop-color="#261E85"/>
<stop offset="1" stop-color="#8B87B8"/>
</linearGradient>
</defs>
</svg>
