<svg width="40" height="40" viewBox="0 0 40 40" fill="none" xmlns="http://www.w3.org/2000/svg">
<g filter="url(#filter0_i_74_541)">
<rect width="40" height="40" rx="16" fill="url(#paint0_linear_74_541)"/>
<path d="M29 18H11M24 10V14M16 10V14M17 24L19 26L23.5 21.5M15.8 30H24.2C25.8802 30 26.7202 30 27.362 29.673C27.9265 29.3854 28.3854 28.9265 28.673 28.362C29 27.7202 29 26.8802 29 25.2V16.8C29 15.1198 29 14.2798 28.673 13.638C28.3854 13.0735 27.9265 12.6146 27.362 12.327C26.7202 12 25.8802 12 24.2 12H15.8C14.1198 12 13.2798 12 12.638 12.327C12.0735 12.6146 11.6146 13.0735 11.327 13.638C11 14.2798 11 15.1198 11 16.8V25.2C11 26.8802 11 27.7202 11.327 28.362C11.6146 28.9265 12.0735 29.3854 12.638 29.673C13.2798 30 14.1198 30 15.8 30Z" stroke="white" stroke-width="2" stroke-linecap="round" stroke-linejoin="round"/>
</g>
<defs>
<filter id="filter0_i_74_541" x="0" y="-2" width="40" height="42" filterUnits="userSpaceOnUse" color-interpolation-filters="sRGB">
<feFlood flood-opacity="0" result="BackgroundImageFix"/>
<feBlend mode="normal" in="SourceGraphic" in2="BackgroundImageFix" result="shape"/>
<feColorMatrix in="SourceAlpha" type="matrix" values="0 0 0 0 0 0 0 0 0 0 0 0 0 0 0 0 0 0 127 0" result="hardAlpha"/>
<feOffset dy="-2"/>
<feGaussianBlur stdDeviation="2"/>
<feComposite in2="hardAlpha" operator="arithmetic" k2="-1" k3="1"/>
<feColorMatrix type="matrix" values="0 0 0 0 0 0 0 0 0 0 0 0 0 0 0 0 0 0 0.25 0"/>
<feBlend mode="normal" in2="shape" result="effect1_innerShadow_74_541"/>
</filter>
<linearGradient id="paint0_linear_74_541" x1="9.74359" y1="3.07692" x2="20" y2="40" gradientUnits="userSpaceOnUse">
<stop stop-color="#261E85"/>
<stop offset="1" stop-color="#8B87B8"/>
</linearGradient>
</defs>
</svg>
