<svg width="40" height="40" viewBox="0 0 40 40" fill="none" xmlns="http://www.w3.org/2000/svg">
<g filter="url(#filter0_i_74_2219)">
<rect width="40" height="40" rx="16" fill="url(#paint0_linear_74_2219)"/>
<path d="M24 26L26 28L30 24M20 23H16C14.1362 23 13.2044 23 12.4693 23.3045C11.4892 23.7105 10.7105 24.4892 10.3045 25.4693C10 26.2044 10 27.1362 10 29M23.5 11.2908C24.9659 11.8841 26 13.3213 26 15C26 16.6787 24.9659 18.1159 23.5 18.7092M21.5 15C21.5 17.2091 19.7091 19 17.5 19C15.2909 19 13.5 17.2091 13.5 15C13.5 12.7909 15.2909 11 17.5 11C19.7091 11 21.5 12.7909 21.5 15Z" stroke="white" stroke-width="2" stroke-linecap="round" stroke-linejoin="round"/>
</g>
<defs>
<filter id="filter0_i_74_2219" x="0" y="-2" width="40" height="42" filterUnits="userSpaceOnUse" color-interpolation-filters="sRGB">
<feFlood flood-opacity="0" result="BackgroundImageFix"/>
<feBlend mode="normal" in="SourceGraphic" in2="BackgroundImageFix" result="shape"/>
<feColorMatrix in="SourceAlpha" type="matrix" values="0 0 0 0 0 0 0 0 0 0 0 0 0 0 0 0 0 0 127 0" result="hardAlpha"/>
<feOffset dy="-2"/>
<feGaussianBlur stdDeviation="2"/>
<feComposite in2="hardAlpha" operator="arithmetic" k2="-1" k3="1"/>
<feColorMatrix type="matrix" values="0 0 0 0 0 0 0 0 0 0 0 0 0 0 0 0 0 0 0.25 0"/>
<feBlend mode="normal" in2="shape" result="effect1_innerShadow_74_2219"/>
</filter>
<linearGradient id="paint0_linear_74_2219" x1="9.74359" y1="3.07692" x2="20" y2="40" gradientUnits="userSpaceOnUse">
<stop stop-color="#261E85"/>
<stop offset="1" stop-color="#8B87B8"/>
</linearGradient>
</defs>
</svg>
