<?xml version="1.0" encoding="UTF-8"?>
<svg version="1.1" xmlns="http://www.w3.org/2000/svg" width="1254" height="1254">
<path d="M0 0 C413.82 0 827.64 0 1254 0 C1254 413.82 1254 827.64 1254 1254 C840.18 1254 426.36 1254 0 1254 C0 840.18 0 426.36 0 0 Z " fill="#FEFDFE" transform="translate(0,0)"/>
<path d="M0 0 C1.47196035 -0.00302937 2.94391913 -0.00692274 4.4158752 -0.01159257 C8.41569288 -0.02178034 12.41542002 -0.01971458 16.41524482 -0.01541197 C20.74668299 -0.01292779 25.0781003 -0.02197979 29.40953064 -0.02944946 C37.87818324 -0.04215202 46.34680406 -0.0439957 54.81546459 -0.0416492 C61.70472604 -0.0398608 68.59397791 -0.04162683 75.48323822 -0.04587364 C76.95816704 -0.04676643 76.95816704 -0.04676643 78.4628924 -0.04767724 C80.46092949 -0.04888909 82.45896659 -0.05010323 84.45700368 -0.05131962 C103.16473322 -0.06217815 121.8724447 -0.06004074 140.58017525 -0.05393478 C157.66067136 -0.04876777 174.7411104 -0.06001836 191.82159522 -0.07903299 C209.3972501 -0.09844752 226.97287803 -0.10666102 244.54854369 -0.10290974 C254.40091439 -0.1010031 264.25323655 -0.10343269 274.10559845 -0.11762428 C282.49366549 -0.12958528 290.8816541 -0.13089043 299.26972231 -0.11883412 C303.54149344 -0.11297822 307.81312145 -0.11175381 312.08488274 -0.12383652 C344.69201343 -0.20987044 344.69201343 -0.20987044 360.77093506 3.26069641 C362.31553091 3.56577134 362.31553091 3.56577134 363.89133072 3.87700939 C366.20466814 4.34037303 368.48416233 4.8687716 370.77093506 5.44819641 C371.58650879 5.65468811 372.40208252 5.86117981 373.24237061 6.07392883 C396.77582243 12.36384037 418.88904981 24.72011589 436.66546631 41.30757141 C438.38350967 42.90130365 440.11958841 44.37528567 441.95843506 45.82319641 C445.62820992 49.00366796 448.66697846 52.53594849 451.77093506 56.26069641 C452.37679443 56.96710266 452.98265381 57.67350891 453.60687256 58.40132141 C464.84819844 71.89091247 474.15644023 87.18526947 479.89984131 103.79585266 C480.65046556 105.91981636 481.47622407 107.95621764 482.39593506 110.01069641 C485.01437565 116.1997378 486.20015471 122.39504663 487.20843506 129.00288391 C487.73587485 132.36533678 487.73587485 132.36533678 488.78979778 135.99827003 C490.30513235 142.82714634 490.05064377 149.76214239 490.03163147 156.71733093 C490.03465504 158.28723285 490.03854555 159.8571333 490.04322404 161.42703116 C490.05348712 165.72544209 490.05132647 170.02376945 490.04704344 174.32218719 C490.04457299 178.96457167 490.05359461 183.60693621 490.06108093 188.24931335 C490.07382339 197.3404274 490.07562199 206.43151189 490.07328067 215.52263336 C490.071496 222.91785434 490.07325037 230.31306637 490.07750511 237.70828629 C490.0781003 238.76176913 490.07869549 239.81525198 490.07930871 240.90065856 C490.08052051 243.04106986 490.08173465 245.18148116 490.08295109 247.32189246 C490.09382595 267.39303219 490.09166504 287.46415512 490.08556625 307.5352958 C490.08040333 325.8674447 490.09163609 344.19954035 490.11066446 362.53167872 C490.13007491 381.37727723 490.13829285 400.22285059 490.13454121 419.06845915 C490.13263324 429.63968063 490.1350768 440.21085687 490.14925575 450.78207016 C490.16121183 459.78695385 490.16252769 468.79176449 490.15046559 477.79664926 C490.14460498 482.38431675 490.14339847 486.97185092 490.15546799 491.55950928 C490.24194752 526.81694077 490.24194752 526.81694077 486.77093506 542.26069641 C486.52847707 543.37653799 486.28601908 544.49237957 486.03621387 545.64203453 C485.43654169 548.29096989 484.75701666 550.89666954 484.02093506 553.51069641 C483.76489502 554.42979797 483.50885498 555.34889954 483.24505615 556.29585266 C480.88491304 564.43329607 477.75982609 571.78471513 473.77093506 579.26069641 C473.17667725 580.40409485 472.58241943 581.54749329 471.97015381 582.72554016 C464.19052468 597.04456769 454.04389448 609.55485535 442.77093506 621.26069641 C442.1818335 621.90136047 441.59273193 622.54202454 440.98577881 623.20210266 C418.4449969 647.07207072 384.68760836 661.28818263 352.77093506 666.26069641 C351.69834379 666.43088948 350.62575253 666.60108255 349.52065849 666.77643299 C343.13955632 667.55987606 336.71934168 667.40213075 330.30099487 667.39440918 C328.82611498 667.39627914 327.35123558 667.39858058 325.87635696 667.4012745 C321.83601212 667.40737651 317.79568802 667.40726078 313.75533962 667.40608013 C309.39244711 667.4058757 305.02956118 667.41139898 300.66667175 667.4161377 C292.12186955 667.42443706 283.57707425 667.42719225 275.03226836 667.42775007 C268.0813346 667.42822576 261.13040311 667.43028318 254.17947006 667.4334507 C234.45174333 667.4422569 214.72402203 667.44687036 194.99629332 667.44612022 C193.93321416 667.44608027 192.87013499 667.44604031 191.77484131 667.44599915 C190.17826365 667.44593782 190.17826365 667.44593782 188.54943191 667.44587526 C171.31909847 667.44546926 154.08878695 667.4550275 136.85845985 667.46913751 C119.14630374 667.48352699 101.43415829 667.49040622 83.72199619 667.48954374 C73.78628482 667.48921256 63.85059638 667.49192465 53.91489029 667.50272179 C45.4508831 667.51186088 36.98690923 667.51397434 28.52289923 667.50721236 C24.21082298 667.50396371 19.89881053 667.50382995 15.58674049 667.51256561 C-25.80134919 667.59118693 -25.80134919 667.59118693 -41.60406494 663.13569641 C-42.37532715 662.9239679 -43.14658936 662.71223938 -43.94122314 662.49409485 C-68.00251129 655.60351953 -90.48161548 643.79752469 -108.74859619 626.58491516 C-110.85281675 624.61324393 -113.00268331 622.77717118 -115.22906494 620.94819641 C-134.55159267 604.03112622 -148.14541615 579.11840917 -155.47979736 554.88032532 C-156.68019862 550.91493037 -156.68019862 550.91493037 -158.20073414 547.06531811 C-164.73497808 529.24412451 -162.65660338 507.80564472 -162.6065799 489.100613 C-162.59763531 484.50962263 -162.60621049 479.91865751 -162.61244202 475.32766724 C-162.62187188 466.36351097 -162.61538213 457.39943589 -162.60317907 448.43528571 C-162.58947814 437.9768786 -162.59120395 427.51849026 -162.59331241 417.06007645 C-162.5964936 398.39215132 -162.5848832 379.72426449 -162.56524658 361.05635071 C-162.5462325 342.97528416 -162.53916371 324.89426247 -162.54473877 306.81318665 C-162.55080605 287.07761479 -162.55060316 267.34206258 -162.53925294 247.60649234 C-162.53804576 245.4996022 -162.53683977 243.39271206 -162.53563499 241.28582191 C-162.53503146 240.24943437 -162.53442792 239.21304682 -162.53380609 238.14525359 C-162.52993912 230.86835534 -162.53031576 223.59146444 -162.53222084 216.31456566 C-162.53434991 207.44128048 -162.52906462 198.56803442 -162.51460729 189.69476023 C-162.50739905 185.17424496 -162.50325559 180.65378646 -162.50785065 176.13326645 C-162.51196439 171.98519101 -162.5066571 167.83723214 -162.49422457 163.68917427 C-162.49132692 162.19895115 -162.49168445 160.70871683 -162.49586765 159.21849676 C-162.60218202 117.5183018 -146.31075451 78.97185978 -117.22906494 49.26069641 C-116.34605713 48.32741516 -115.46304932 47.39413391 -114.55328369 46.43257141 C-84.77259704 15.5744359 -42.48307416 -0.12618393 0 0 Z " fill="#FDFDFD" transform="translate(463.22906494140625,172.7393035888672)"/>
<path d="M0 0 C1.47196035 -0.00302937 2.94391913 -0.00692274 4.4158752 -0.01159257 C8.41569288 -0.02178034 12.41542002 -0.01971458 16.41524482 -0.01541197 C20.74668299 -0.01292779 25.0781003 -0.02197979 29.40953064 -0.02944946 C37.87818324 -0.04215202 46.34680406 -0.0439957 54.81546459 -0.0416492 C61.70472604 -0.0398608 68.59397791 -0.04162683 75.48323822 -0.04587364 C76.95816704 -0.04676643 76.95816704 -0.04676643 78.4628924 -0.04767724 C80.46092949 -0.04888909 82.45896659 -0.05010323 84.45700368 -0.05131962 C103.16473322 -0.06217815 121.8724447 -0.06004074 140.58017525 -0.05393478 C157.66067136 -0.04876777 174.7411104 -0.06001836 191.82159522 -0.07903299 C209.3972501 -0.09844752 226.97287803 -0.10666102 244.54854369 -0.10290974 C254.40091439 -0.1010031 264.25323655 -0.10343269 274.10559845 -0.11762428 C282.49366549 -0.12958528 290.8816541 -0.13089043 299.26972231 -0.11883412 C303.54149344 -0.11297822 307.81312145 -0.11175381 312.08488274 -0.12383652 C344.69201343 -0.20987044 344.69201343 -0.20987044 360.77093506 3.26069641 C362.31553091 3.56577134 362.31553091 3.56577134 363.89133072 3.87700939 C366.20466814 4.34037303 368.48416233 4.8687716 370.77093506 5.44819641 C371.58650879 5.65468811 372.40208252 5.86117981 373.24237061 6.07392883 C396.77582243 12.36384037 418.88904981 24.72011589 436.66546631 41.30757141 C438.38350967 42.90130365 440.11958841 44.37528567 441.95843506 45.82319641 C445.62820992 49.00366796 448.66697846 52.53594849 451.77093506 56.26069641 C452.37679443 56.96710266 452.98265381 57.67350891 453.60687256 58.40132141 C464.84819844 71.89091247 474.15644023 87.18526947 479.89984131 103.79585266 C480.65046556 105.91981636 481.47622407 107.95621764 482.39593506 110.01069641 C485.01437565 116.1997378 486.20015471 122.39504663 487.20843506 129.00288391 C487.73587485 132.36533678 487.73587485 132.36533678 488.78979778 135.99827003 C490.30513235 142.82714634 490.05064377 149.76214239 490.03163147 156.71733093 C490.03465504 158.28723285 490.03854555 159.8571333 490.04322404 161.42703116 C490.05348712 165.72544209 490.05132647 170.02376945 490.04704344 174.32218719 C490.04457299 178.96457167 490.05359461 183.60693621 490.06108093 188.24931335 C490.07382339 197.3404274 490.07562199 206.43151189 490.07328067 215.52263336 C490.071496 222.91785434 490.07325037 230.31306637 490.07750511 237.70828629 C490.0781003 238.76176913 490.07869549 239.81525198 490.07930871 240.90065856 C490.08052051 243.04106986 490.08173465 245.18148116 490.08295109 247.32189246 C490.09382595 267.39303219 490.09166504 287.46415512 490.08556625 307.5352958 C490.08040333 325.8674447 490.09163609 344.19954035 490.11066446 362.53167872 C490.13007491 381.37727723 490.13829285 400.22285059 490.13454121 419.06845915 C490.13263324 429.63968063 490.1350768 440.21085687 490.14925575 450.78207016 C490.16121183 459.78695385 490.16252769 468.79176449 490.15046559 477.79664926 C490.14460498 482.38431675 490.14339847 486.97185092 490.15546799 491.55950928 C490.24194752 526.81694077 490.24194752 526.81694077 486.77093506 542.26069641 C486.52847707 543.37653799 486.28601908 544.49237957 486.03621387 545.64203453 C485.43654169 548.29096989 484.75701666 550.89666954 484.02093506 553.51069641 C483.76489502 554.42979797 483.50885498 555.34889954 483.24505615 556.29585266 C480.88491304 564.43329607 477.75982609 571.78471513 473.77093506 579.26069641 C473.17667725 580.40409485 472.58241943 581.54749329 471.97015381 582.72554016 C464.19052468 597.04456769 454.04389448 609.55485535 442.77093506 621.26069641 C442.1818335 621.90136047 441.59273193 622.54202454 440.98577881 623.20210266 C418.4449969 647.07207072 384.68760836 661.28818263 352.77093506 666.26069641 C351.69834379 666.43088948 350.62575253 666.60108255 349.52065849 666.77643299 C343.13955632 667.55987606 336.71934168 667.40213075 330.30099487 667.39440918 C328.82611498 667.39627914 327.35123558 667.39858058 325.87635696 667.4012745 C321.83601212 667.40737651 317.79568802 667.40726078 313.75533962 667.40608013 C309.39244711 667.4058757 305.02956118 667.41139898 300.66667175 667.4161377 C292.12186955 667.42443706 283.57707425 667.42719225 275.03226836 667.42775007 C268.0813346 667.42822576 261.13040311 667.43028318 254.17947006 667.4334507 C234.45174333 667.4422569 214.72402203 667.44687036 194.99629332 667.44612022 C193.93321416 667.44608027 192.87013499 667.44604031 191.77484131 667.44599915 C190.17826365 667.44593782 190.17826365 667.44593782 188.54943191 667.44587526 C171.31909847 667.44546926 154.08878695 667.4550275 136.85845985 667.46913751 C119.14630374 667.48352699 101.43415829 667.49040622 83.72199619 667.48954374 C73.78628482 667.48921256 63.85059638 667.49192465 53.91489029 667.50272179 C45.4508831 667.51186088 36.98690923 667.51397434 28.52289923 667.50721236 C24.21082298 667.50396371 19.89881053 667.50382995 15.58674049 667.51256561 C-25.80134919 667.59118693 -25.80134919 667.59118693 -41.60406494 663.13569641 C-42.37532715 662.9239679 -43.14658936 662.71223938 -43.94122314 662.49409485 C-68.00251129 655.60351953 -90.48161548 643.79752469 -108.74859619 626.58491516 C-110.85281675 624.61324393 -113.00268331 622.77717118 -115.22906494 620.94819641 C-134.55159267 604.03112622 -148.14541615 579.11840917 -155.47979736 554.88032532 C-156.68019862 550.91493037 -156.68019862 550.91493037 -158.20073414 547.06531811 C-164.73497808 529.24412451 -162.65660338 507.80564472 -162.6065799 489.100613 C-162.59763531 484.50962263 -162.60621049 479.91865751 -162.61244202 475.32766724 C-162.62187188 466.36351097 -162.61538213 457.39943589 -162.60317907 448.43528571 C-162.58947814 437.9768786 -162.59120395 427.51849026 -162.59331241 417.06007645 C-162.5964936 398.39215132 -162.5848832 379.72426449 -162.56524658 361.05635071 C-162.5462325 342.97528416 -162.53916371 324.89426247 -162.54473877 306.81318665 C-162.55080605 287.07761479 -162.55060316 267.34206258 -162.53925294 247.60649234 C-162.53804576 245.4996022 -162.53683977 243.39271206 -162.53563499 241.28582191 C-162.53503146 240.24943437 -162.53442792 239.21304682 -162.53380609 238.14525359 C-162.52993912 230.86835534 -162.53031576 223.59146444 -162.53222084 216.31456566 C-162.53434991 207.44128048 -162.52906462 198.56803442 -162.51460729 189.69476023 C-162.50739905 185.17424496 -162.50325559 180.65378646 -162.50785065 176.13326645 C-162.51196439 171.98519101 -162.5066571 167.83723214 -162.49422457 163.68917427 C-162.49132692 162.19895115 -162.49168445 160.70871683 -162.49586765 159.21849676 C-162.60218202 117.5183018 -146.31075451 78.97185978 -117.22906494 49.26069641 C-116.34605713 48.32741516 -115.46304932 47.39413391 -114.55328369 46.43257141 C-84.77259704 15.5744359 -42.48307416 -0.12618393 0 0 Z M-42.60406494 25.82319641 C-43.3689624 26.07440247 -44.13385986 26.32560852 -44.92193604 26.58442688 C-83.82365662 39.92373176 -112.06199845 66.95212843 -130.73297119 103.17866516 C-134.67856546 111.99439888 -137.11766589 121.48275894 -139.77593994 130.74897766 C-140.03214111 131.64141174 -140.28834229 132.53384583 -140.55230713 133.45332336 C-141.8807171 138.96392448 -142.35431978 144.35135652 -142.36049271 150.00914574 C-142.36254534 150.65371151 -142.36459797 151.29827728 -142.36671281 151.96237534 C-142.37234808 154.11305394 -142.37092988 156.26366779 -142.36950684 158.41435242 C-142.37209248 159.97570291 -142.3751062 161.53705274 -142.37851024 163.09840167 C-142.38656035 167.38236717 -142.3883687 171.66631589 -142.3891077 175.95028806 C-142.39096178 180.57357814 -142.39851102 185.19685958 -142.40524292 189.82014465 C-142.41881375 199.92798605 -142.42484933 210.03582348 -142.42925358 220.14367247 C-142.43201874 226.45979744 -142.43625665 232.77592089 -142.44075775 239.09204483 C-142.45294996 256.59214621 -142.46324861 274.09224638 -142.46663284 291.59235191 C-142.46685241 292.71202179 -142.46707198 293.83169166 -142.46729819 294.98529092 C-142.46751647 296.10759165 -142.46773475 297.22989238 -142.46795964 298.38620222 C-142.4684031 300.66028492 -142.46884967 302.93436762 -142.46929932 305.20845032 C-142.46952075 306.33646614 -142.46974218 307.46448197 -142.46997032 308.62668009 C-142.47391515 326.88917269 -142.49135977 345.15162531 -142.51465884 363.41410248 C-142.53840676 382.1805237 -142.5508363 400.9469249 -142.55200076 419.71336138 C-142.55291571 430.2431936 -142.55862243 440.77297376 -142.57682037 451.3027916 C-142.592268 460.2726422 -142.5973145 469.24242465 -142.58908227 478.21228604 C-142.58519191 482.78349359 -142.58602579 487.35456411 -142.60013962 491.92575455 C-142.61297635 496.12196991 -142.61159644 500.31794664 -142.59954891 504.51416214 C-142.59760864 506.02097718 -142.60059165 507.52780971 -142.60939327 509.0346003 C-142.65247325 516.91766608 -142.23070438 524.51580474 -140.89359665 532.28716469 C-140.77731118 532.96770514 -140.66102572 533.64824558 -140.54121645 534.34940847 C-139.74643826 538.55466697 -138.53396275 542.42583322 -136.94886656 546.40039089 C-136.20130825 548.33243273 -135.58193468 550.27924145 -134.97906494 552.26069641 C-128.65347291 571.17259463 -118.7562278 587.65710149 -105.22906494 602.26069641 C-104.7250415 602.80854797 -104.22101807 603.35639954 -103.70172119 603.92085266 C-80.06172702 629.32942495 -46.40623406 645.65810343 -11.61115158 647.44666719 C-7.7666279 647.51599765 -3.92475127 647.52797738 -0.07987976 647.5146637 C1.3954933 647.51697413 2.8708652 647.52015453 4.34623474 647.52411819 C8.35989969 647.53239474 12.37346838 647.52837378 16.38713348 647.52214575 C20.73142294 647.51759278 25.07569665 647.52461901 29.41998291 647.53010559 C37.91416819 647.53897081 46.408318 647.53709048 54.90250463 647.53128031 C61.8090034 647.52675279 68.71549228 647.52615562 75.62199211 647.52832794 C77.09972267 647.52878764 77.09972267 647.52878764 78.60730637 647.52925663 C80.60897939 647.52989611 82.61065241 647.53054454 84.61232542 647.53120181 C103.35516074 647.53689662 122.09797646 647.53036041 140.84080856 647.51960108 C156.90468541 647.51066495 172.96853334 647.51221977 189.03240967 647.5214386 C207.71241272 647.53215385 226.39239863 647.53634884 245.07240433 647.53021407 C247.06616747 647.52957701 249.05993062 647.52894827 251.05369377 647.52832794 C252.03452205 647.52801939 253.01535033 647.52771084 254.02590068 647.52739294 C260.92040917 647.52566987 267.81490673 647.52857269 274.70941353 647.53328705 C283.11669534 647.53890977 291.52393982 647.53735017 299.93121738 647.52672556 C304.21638491 647.52148777 308.50149033 647.51937969 312.78665733 647.52602386 C316.71650374 647.53202474 320.64623099 647.52864066 324.57606672 647.51806876 C325.99040467 647.51585217 327.40475288 647.51693138 328.81908412 647.52182034 C363.43376909 647.63220651 395.39474912 635.35242575 421.77093506 613.26069641 C422.4812085 612.67417297 423.19148193 612.08764954 423.92327881 611.48335266 C428.69432777 607.44490239 432.79042002 603.07230799 436.77093506 598.26069641 C437.72806396 597.13534485 437.72806396 597.13534485 438.70452881 595.98725891 C449.37079722 583.13783615 458.35299037 567.51164849 463.12640381 551.40522766 C463.61468961 549.78056763 464.17145267 548.17629103 464.75921631 546.58491516 C469.55422152 533.4204463 470.0703945 520.08583904 470.03163147 506.21420288 C470.03466006 504.65348375 470.03855306 503.09276611 470.04322404 501.53205103 C470.05342139 497.28701009 470.05134356 493.04205439 470.04704344 488.79700673 C470.0445611 484.20182031 470.0536089 479.60665363 470.06108093 475.01147461 C470.0737876 466.02646462 470.07562673 457.04148458 470.07328067 448.05646712 C470.07149308 440.74955989 470.07325657 433.4426617 470.07750511 426.13575554 C470.0781003 425.09332091 470.07869549 424.05088627 470.07930871 422.97686271 C470.08052054 420.85875142 470.08173467 418.74064013 470.08295109 416.62252884 C470.09381077 396.78894615 470.0916714 376.95538048 470.08556625 357.12179684 C470.08039662 339.00139786 470.09165655 320.88105264 470.11066446 302.76066429 C470.13006316 284.12394256 470.13829542 265.48724624 470.13454121 246.85051435 C470.13263249 236.39964397 470.13508474 225.94881934 470.14925575 215.49795723 C470.16119632 206.60256033 470.16254437 197.70723737 470.15046559 188.81183941 C470.14459611 184.27918351 470.14342375 179.74666269 470.15546799 175.21401596 C470.16639163 171.05455728 470.16314733 166.8953454 470.1492063 162.73589795 C470.14657712 161.2414552 470.1488691 159.7469927 470.15694217 158.25256944 C470.20893047 147.89988276 468.94393776 138.35768354 466.77093506 128.26069641 C466.45600315 126.6153267 466.14275693 124.96963001 465.83343506 123.32319641 C464.95656095 119.49683668 463.49546268 116.09201486 461.82171631 112.54975891 C460.78713058 110.29597737 459.93593885 108.02603781 459.08343506 105.69819641 C445.68689743 72.12866242 417.28926374 45.85195084 384.77093506 31.26069641 C365.7256636 23.29177238 346.94636305 20.10555592 326.33932495 20.12025452 C324.88079369 20.11766698 323.42226314 20.11465275 321.96373355 20.11125112 C317.97318707 20.10322319 313.98265861 20.1013939 309.99210501 20.10065365 C305.6810162 20.09879568 301.36993659 20.09124457 297.05885315 20.08451843 C287.63899057 20.07096371 278.21913227 20.06491463 268.79926157 20.06050777 C262.91025993 20.05774005 257.02125991 20.0535017 251.13225937 20.0490036 C234.80731624 20.03681382 218.48237441 20.02651448 202.15742683 20.02312851 C201.11352061 20.02290894 200.06961438 20.02268938 198.99407464 20.02246316 C197.42459477 20.02213574 197.42459477 20.02213574 195.82340825 20.02180171 C193.70337812 20.02135825 191.583348 20.02091169 189.46331787 20.02046204 C188.41172304 20.02024061 187.36012821 20.02001918 186.27666686 20.01979104 C169.25399101 20.01584675 152.23135806 19.99840271 135.20869876 19.97510251 C117.70555832 19.95133933 100.20243935 19.93892437 82.69928253 19.93776059 C72.88258836 19.93684653 63.06595009 19.93116237 53.24927139 19.91294098 C44.8866826 19.89747269 36.52416697 19.8924589 28.16156657 19.90067908 C23.90198457 19.90456214 19.64254959 19.90377209 15.38298607 19.88962173 C-13.99394339 19.67840163 -13.99394339 19.67840163 -42.60406494 25.82319641 Z " fill="#1B293B" transform="translate(463.22906494140625,172.7393035888672)"/>
<path d="M0 0 C1.18980469 -0.01224609 2.37960937 -0.02449219 3.60546875 -0.03710938 C34.83329205 -0.08830253 63.81528138 14.79289436 86.25 35.875 C113.95747796 65.06574766 120.82568923 98.93574275 120.53057575 137.88930988 C120.50520569 141.81564264 120.50319256 145.74199391 120.49847412 149.668396 C120.48614713 157.06978313 120.45346817 164.47092789 120.41307616 171.87220931 C120.35957692 181.89741622 120.33832973 191.92269157 120.31506729 201.94800568 C120.27769648 217.69468458 120.19793867 233.44085254 120.125 249.1875 C97.685 249.1875 75.245 249.1875 52.125 249.1875 C52.08761719 239.49761719 52.05023437 229.80773437 52.01171875 219.82421875 C51.98143402 213.67641812 51.95040362 207.52863615 51.91601562 201.38085938 C51.86160159 191.62819127 51.81018552 181.87557494 51.77856445 172.12280273 C51.75551727 165.01877182 51.72204483 157.91487766 51.67629844 150.81095535 C51.65245635 147.05300864 51.63366879 143.29519662 51.62738609 139.53717613 C51.62129407 135.99205364 51.60114803 132.44727533 51.57072449 128.90228081 C51.55788866 126.99718113 51.55950288 125.09200076 51.5617218 123.18685913 C51.39873439 108.11484415 46.80022633 95.34181242 36.38671875 84.25390625 C26.03509875 74.79620853 11.8562043 68.76549434 -2.1875 68.875 C-2.93588135 68.87991455 -3.6842627 68.8848291 -4.45532227 68.88989258 C-10.34277544 69.01415423 -15.43179933 69.84796141 -20.875 72.1875 C-21.69097656 72.5278125 -22.50695312 72.868125 -23.34765625 73.21875 C-38.7694088 80.2741422 -47.6974019 91.70204436 -53.875 107.1875 C-54.88752307 110.47021114 -55.0113989 113.4787565 -55.03321838 116.90753174 C-55.0430072 118.07418365 -55.05279602 119.24083557 -55.06288147 120.44284058 C-55.06863693 121.71886139 -55.0743924 122.9948822 -55.08032227 124.30957031 C-55.08990469 125.66975194 -55.09991499 127.02993062 -55.11032104 128.3901062 C-55.13733668 132.07981538 -55.15836431 135.76953731 -55.17832303 139.4592905 C-55.20020321 143.31636943 -55.22758195 147.17340921 -55.25437927 151.03045654 C-55.30427869 158.33307436 -55.34922772 165.63571394 -55.39240164 172.93837428 C-55.45103361 182.80734753 -55.51730571 192.67626927 -55.58315182 202.54519653 C-55.68668347 218.09259631 -55.78000122 233.64004032 -55.875 249.1875 C-78.315 249.1875 -100.755 249.1875 -123.875 249.1875 C-124.03621214 214.34328786 -124.03621214 214.34328786 -124.0703125 199.63867188 C-124.09396235 189.52229617 -124.12162422 179.40605461 -124.17675781 169.28979492 C-124.21690831 161.91914914 -124.24249906 154.54861316 -124.25135398 147.17786103 C-124.25652156 143.28316624 -124.26847044 139.38878527 -124.29792023 135.49419212 C-124.58386832 96.11553874 -115.6853249 63.13105702 -87.5625 34.4375 C-71.95793348 18.98905721 -52.8629546 9.15599681 -31.875 3.1875 C-31.23062988 3.0004248 -30.58625977 2.81334961 -29.92236328 2.62060547 C-20.11233519 -0.04994313 -10.10277459 0.00543745 0 0 Z " fill="#1A283A" transform="translate(555.875,470.8125)"/>
<path d="M0 0 C6.455625 -0.04125 12.91125 -0.0825 19.5625 -0.125 C21.56642822 -0.14320801 23.57035645 -0.16141602 25.63500977 -0.18017578 C38.90302053 -0.25151742 51.89159554 0.23288607 64.625 4.375 C65.33390381 4.59631592 66.04280762 4.81763184 66.77319336 5.0456543 C68.19265281 5.48886577 69.61092399 5.93590541 71.02783203 6.38720703 C72.80805933 6.9403601 74.60460929 7.44030037 76.40234375 7.93359375 C85.55986878 10.48049503 93.66414134 14.52578788 102 19 C102.92329102 19.48774902 102.92329102 19.48774902 103.86523438 19.98535156 C117.90189878 27.44375216 129.54110474 37.10048868 141 48 C141.64453125 48.59167969 142.2890625 49.18335938 142.953125 49.79296875 C160.20199411 66.11491265 171.95530261 88.90805556 179.6875 111.0625 C179.96110352 111.82151611 180.23470703 112.58053223 180.51660156 113.36254883 C186.81713263 132.26223739 187.57353067 151.45590964 187.45410156 171.19091797 C187.4529704 173.84439208 187.45343711 176.49782213 187.45587158 179.15129089 C187.45794813 184.81552687 187.44561991 190.47957561 187.42292023 196.1437645 C187.39012397 204.33274775 187.37996533 212.5216424 187.37496826 220.7106842 C187.36625838 234.0034629 187.3397611 247.29614227 187.30175781 260.58886719 C187.26492525 273.4856721 187.23666889 286.38244984 187.21972656 299.27929688 C187.21867567 300.07701877 187.21762477 300.87474066 187.21654204 301.69663595 C187.2113211 305.69939699 187.20626646 309.70215822 187.20129442 313.70491958 C187.15996679 346.80336781 187.08630259 379.90163089 187 413 C163.57 413 140.14 413 116 413 C115.98541748 405.11673828 115.97083496 397.23347656 115.95581055 389.11132812 C115.9069764 363.8418834 115.84354615 338.57249534 115.77101372 313.30310819 C115.75974655 309.37313364 115.74860794 305.44315873 115.73754883 301.51318359 C115.73534514 300.73084888 115.73314146 299.94851416 115.730871 299.14247233 C115.69556998 286.50153265 115.67066533 273.86059302 115.64965298 261.21962243 C115.62783344 248.23340344 115.59472504 235.247248 115.55129844 222.26108313 C115.52488731 214.25823036 115.50711452 206.25545667 115.50065396 198.25256252 C115.4947396 192.09940787 115.47306268 185.94639716 115.44572449 179.79330254 C115.43697719 177.28122136 115.43321477 174.76911673 115.43499184 172.25702095 C115.45704134 147.45020846 115.45704134 147.45020846 108 124 C107.24203125 122.44345703 107.24203125 122.44345703 106.46875 120.85546875 C102.71339609 113.52399374 98.47755167 107.1468014 93 101 C92.33484375 100.24074219 91.6696875 99.48148437 90.984375 98.69921875 C76.19716479 82.84404336 55.1060227 74.63825284 34 72 C22.78 71.67 11.56 71.34 0 71 C0 47.57 0 24.14 0 0 Z " fill="#1A283A" transform="translate(637,307)"/>
<path d="M0 0 C0 23.43 0 46.86 0 71 C-8.58 71.33 -17.16 71.66 -26 72 C-33.72635369 73.28772561 -40.23634527 74.40091876 -47.375 77.125 C-48.18807617 77.43356934 -49.00115234 77.74213867 -49.83886719 78.06005859 C-75.10414536 87.94841717 -91.87674857 105.46987743 -103 130 C-105.6450701 136.88154226 -107.42351361 143.64979848 -108 151 C-111.90787015 152.47572948 -115.81446312 153.93455047 -119.75390625 155.32421875 C-144.5293405 164.10832429 -170.84995693 180.69991387 -183 205 C-183.66 205 -184.32 205 -185 205 C-185.85233455 152.39456703 -185.85233455 152.39456703 -181 133 C-180.67854004 131.68805664 -180.67854004 131.68805664 -180.35058594 130.34960938 C-177.21901 117.99652236 -172.57884829 106.43690746 -167 95 C-166.68836914 94.35224609 -166.37673828 93.70449219 -166.05566406 93.03710938 C-158.75315689 78.03026395 -149.12181476 64.38586351 -137.43603516 52.47119141 C-135.92096056 50.91902556 -134.43535186 49.34158464 -132.94921875 47.76171875 C-110.72462385 24.46102165 -79.6234441 8.03565734 -48 2 C-46.9584375 1.79632813 -45.916875 1.59265625 -44.84375 1.3828125 C-29.85338579 -0.99609313 -15.40010895 0 0 0 Z " fill="#1A283A" transform="translate(617,307)"/>
<path d="M0 0 C2.01367188 0.91577148 2.01367188 0.91577148 3.23046875 3.34912109 C3.56111328 4.41138916 3.89175781 5.47365723 4.23242188 6.56811523 C4.60753906 7.73793945 4.98265625 8.90776367 5.36914062 10.11303711 C5.74683594 11.34731445 6.12453125 12.5815918 6.51367188 13.85327148 C7.27123604 16.25911947 8.03161242 18.6640839 8.79492188 21.06811523 C9.16439941 22.23552246 9.53387695 23.40292969 9.91455078 24.60571289 C11.16554451 28.37314357 12.60213193 32.029488 14.11621094 35.69726562 C15.44277087 38.9764958 16.53914977 42.30336195 17.63867188 45.66577148 C18.0434375 46.89811523 18.44820312 48.13045898 18.86523438 49.40014648 C19.59470919 51.63323265 20.31343497 53.86988125 21.01757812 56.11108398 C23.45530978 62.97497154 27.37449993 68.59618551 34.01367188 71.91577148 C36.56729792 72.00235717 39.09321607 72.03139665 41.64648438 72.01342773 C42.39832001 72.01201279 43.15015564 72.01059784 43.92477417 72.00914001 C46.32944697 72.00353614 48.73402715 71.99098305 51.13867188 71.97827148 C52.76757678 71.97325698 54.39648315 71.96869399 56.02539062 71.96459961 C60.02152014 71.95356545 64.0175803 71.93629827 68.01367188 71.91577148 C67.66433594 71.31249023 67.315 70.70920898 66.95507812 70.08764648 C66.50003906 69.28842773 66.045 68.48920898 65.57617188 67.66577148 C65.12371094 66.87686523 64.67125 66.08795898 64.20507812 65.27514648 C60.10054562 57.14682637 60.34173956 44.33683812 62.59228516 35.69360352 C66.49551801 25.15151664 73.81800082 15.83256238 84.01367188 10.91577148 C92.55842577 7.53100747 104.41776456 7.2772922 113.01367188 10.91577148 C122.78087569 16.4732132 129.62053019 24.07010478 133.41601562 34.67163086 C134.5174428 38.8073819 134.54230507 42.9071645 134.51367188 47.16577148 C134.51157715 48.08729004 134.50948242 49.00880859 134.50732422 49.95825195 C134.30161707 58.89159529 131.9902013 65.45097735 127.01367188 72.91577148 C131.3479611 72.86357282 135.68030694 72.76841556 140.01367188 72.66577148 C141.23441406 72.6515918 142.45515625 72.63741211 143.71289062 72.62280273 C153.514616 72.35971846 153.514616 72.35971846 162.01367188 67.91577148 C165.95510379 63.30606911 167.77907763 57.77670618 169.88867188 52.16577148 C174.63310655 40.00156814 180.37459768 26.74919034 193.01367188 20.91577148 C201.16404065 17.62094155 211.15520578 17.48662641 219.38867188 20.54077148 C229.74448776 25.41309797 235.97928242 32.29712196 240.15820312 42.95874023 C242.31240613 49.05755324 242.57792815 54.62117974 242.45117188 61.04077148 C242.45826172 62.06041992 242.46535156 63.08006836 242.47265625 64.13061523 C242.38563123 74.56022915 239.50945563 83.6343502 233.01367188 91.91577148 C226.09068829 97.93306008 219.02925099 100.30050455 209.88867188 100.22827148 C209.14020996 100.22263184 208.39174805 100.21699219 207.62060547 100.21118164 C197.37354607 99.98942184 189.19309987 97.48739359 180.38867188 92.22045898 C178.16371593 90.998197 176.53698306 90.15608684 174.01367188 89.91577148 C172.3121766 91.11682697 170.61495265 92.32494242 168.95166016 93.57836914 C161.38276582 98.80164997 152.40206194 98.38180849 143.57739258 98.30688477 C141.34783541 98.29092654 139.12012411 98.30672701 136.890625 98.32592773 C125.1730553 98.34281523 114.09511836 96.94372854 103.17382812 92.36889648 C98.58939259 91.40724274 94.1173958 92.85312524 89.70507812 94.10717773 C76.55352651 97.73167261 63.89395622 98.46752419 50.32617188 98.54077148 C49.02814133 98.55963913 49.02814133 98.55963913 47.70388794 98.57888794 C34.73597957 98.7323225 23.32193927 97.71463941 13.41601562 88.34155273 C12.95324219 87.87104492 12.49046875 87.40053711 12.01367188 86.91577148 C11.20929688 86.13202148 10.40492188 85.34827148 9.57617188 84.54077148 C9.06054688 84.00452148 8.54492188 83.46827148 8.01367188 82.91577148 C7.75199219 83.50487305 7.4903125 84.09397461 7.22070312 84.70092773 C2.67385725 93.04416919 -6.36569465 96.30445158 -14.98632812 98.91577148 C-17.89791517 99.53627364 -20.07798335 99.84745466 -22.98632812 99.91577148 C-24.14648438 99.95444336 -25.30664062 99.99311523 -26.50195312 100.03295898 C-37.4549603 100.27716868 -48.72367739 100.02083178 -58.98632812 95.91577148 C-58.98632812 87.66577148 -58.98632812 79.41577148 -58.98632812 70.91577148 C-56.05757812 71.41077148 -53.12882813 71.90577148 -50.11132812 72.41577148 C-36.28445024 74.55637702 -19.37539759 77.17267988 -7.14648438 68.63061523 C-4.52405137 66.02271094 -3.64994984 63.36349451 -3.42382812 59.79077148 C-3.91726583 51.41642865 -7.59346749 43.56891971 -11.05273438 36.04467773 C-12.64112689 32.42261111 -13.80677693 28.68684895 -14.98632812 24.91577148 C-15.34082031 23.82135742 -15.6953125 22.72694336 -16.06054688 21.59936523 C-16.42792969 20.4456543 -16.7953125 19.29194336 -17.17382812 18.10327148 C-17.51800781 17.02432617 -17.8621875 15.94538086 -18.21679688 14.83374023 C-18.98632812 11.91577148 -18.98632812 11.91577148 -18.98632812 7.91577148 C-14.04276768 5.40062669 -9.0991606 3.06316112 -3.98632812 0.91577148 C-1.98632812 -0.08422852 -1.98632812 -0.08422852 0 0 Z " fill="#1B293B" transform="translate(748.986328125,925.084228515625)"/>
<path d="M0 0 C0.67740234 -0.020625 1.35480469 -0.04125 2.05273438 -0.0625 C10.52472535 -0.12748171 16.94369419 3.7542905 23.0625 9.25 C32.10276024 18.91372647 34.23599213 30.25699549 34.3125 43.0625 C34.3434375 44.33963867 34.3434375 44.33963867 34.375 45.64257812 C34.43619237 55.68577599 31.09097685 64.23021632 25.0625 72.25 C18.16176757 79.17984944 10.4628569 81.37981515 0.875 81.6875 C-12.01927853 81.37803732 -22.23139088 77.23054001 -32.9375 70.25 C-33.53175781 70.64832031 -34.12601563 71.04664063 -34.73828125 71.45703125 C-35.56714844 71.98683594 -36.39601563 72.51664063 -37.25 73.0625 C-38.05050781 73.58457031 -38.85101563 74.10664062 -39.67578125 74.64453125 C-48.32019361 78.8994456 -56.9139094 79.75176963 -66.4375 79.6875 C-67.48808594 79.70748047 -68.53867187 79.72746094 -69.62109375 79.74804688 C-77.82857751 79.74297426 -84.60653049 77.91548476 -91.9375 74.25 C-92.0303125 76.10625 -92.0303125 76.10625 -92.125 78 C-93.30038966 88.24038115 -98.19501447 96.66825995 -104.9375 104.25 C-105.48664063 104.92675781 -106.03578125 105.60351562 -106.6015625 106.30078125 C-116.68969566 117.74436842 -133.47167549 123.18596932 -148.31152344 124.45263672 C-165.73095704 125.4359354 -184.11577897 122.75121519 -197.84765625 111.1796875 C-210.34084934 99.64391668 -216.3188479 85.5952095 -217.1015625 68.7109375 C-217.57439689 51.9055285 -213.95247768 35.60718667 -204.9375 21.25 C-200.06877946 21.84559106 -196.34421159 23.97477415 -192.125 26.3125 C-191.43212891 26.68955078 -190.73925781 27.06660156 -190.02539062 27.45507812 C-188.32621015 28.38083852 -186.63140575 29.31462312 -184.9375 30.25 C-185.21464844 30.94222656 -185.49179687 31.63445313 -185.77734375 32.34765625 C-186.16019531 33.30542969 -186.54304688 34.26320313 -186.9375 35.25 C-187.35128906 36.27996094 -187.76507813 37.30992187 -188.19140625 38.37109375 C-188.83916016 40.01271484 -188.83916016 40.01271484 -189.5 41.6875 C-189.93441406 42.77933594 -190.36882812 43.87117187 -190.81640625 44.99609375 C-192.89228092 51.02119339 -193.14538244 56.81789596 -193.1875 63.125 C-193.208125 63.88941406 -193.22875 64.65382813 -193.25 65.44140625 C-193.31148934 74.49571113 -189.93047958 82.45124166 -183.9375 89.25 C-175.46103628 95.88124713 -165.97253329 98.83174229 -155.3125 98.75 C-154.44657227 98.74500488 -153.58064453 98.74000977 -152.68847656 98.73486328 C-141.32881898 98.43129705 -130.28383906 95.35787223 -121.9375 87.25 C-112.99214935 77.80768542 -112.3313356 66.51838337 -112.5078125 54.1328125 C-112.96130894 44.45711831 -115.71326683 35.09218231 -118.27319336 25.79516602 C-118.92629332 23.29293628 -119.45572639 20.79023489 -119.9375 18.25 C-104.119762 11.03681855 -104.119762 11.03681855 -97.9375 11.25 C-94.87979255 20.67375411 -92.15762609 30.04703077 -90.02734375 39.7265625 C-88.375284 45.06763022 -86.32181628 48.19327002 -81.8671875 51.59375 C-77.13064181 54.02637123 -72.27863625 53.83493031 -67.0625 53.75 C-66.12019531 53.76546875 -65.17789063 53.7809375 -64.20703125 53.796875 C-57.8278797 53.76158232 -52.24589953 53.0052136 -46.9375 49.25 C-41.71691737 43.45431846 -39.27591427 35.24746854 -36.41992188 28.11523438 C-33.07119339 20.00123562 -29.09173902 12.57365542 -22.3125 6.8125 C-21.57773437 6.17441406 -20.84296875 5.53632812 -20.0859375 4.87890625 C-13.95999326 0.23432671 -7.49993678 0.05676395 0 0 Z " fill="#1B293B" transform="translate(478.9375,943.75)"/>
<path d="M0 0 C7.57451904 6.21398367 13.06969905 15.25441823 14.4375 25 C15.49087903 38.0560479 14.83034003 49.66875166 8.625 61.4375 C2.91575677 68.12547064 -3.50034468 73.24121259 -12.53027344 74.21142578 C-25.08763417 75.00731484 -36.96701071 73.17988885 -48.9375 69.3125 C-53.31597339 67.93828799 -58.02801239 66.82233144 -62.5625 68 C-65.73054219 71.26515659 -65.95027845 73.77784517 -65.99487305 78.23730469 C-66.01466721 79.49830994 -66.03446136 80.75931519 -66.05485535 82.05853271 C-66.06162459 83.42964529 -66.06807152 84.80075949 -66.07421875 86.171875 C-66.09106901 87.57864957 -66.10921973 88.98540911 -66.12861633 90.39215088 C-66.17608539 94.08774114 -66.20591441 97.78327048 -66.23205566 101.47906494 C-66.26187705 105.25309276 -66.30840189 109.02691074 -66.35351562 112.80078125 C-66.43951358 120.20043465 -66.50532954 127.60005743 -66.5625 135 C-74.1525 135 -81.7425 135 -89.5625 135 C-89.58517104 126.81087214 -89.60348426 118.62176905 -89.61431217 110.43261814 C-89.6195113 106.62930184 -89.62655447 102.82600829 -89.63793945 99.02270508 C-89.64887456 95.34631568 -89.65479916 91.66994804 -89.65737724 87.99354362 C-89.65921247 86.59706213 -89.66279586 85.2005817 -89.66823006 83.80410957 C-89.77029063 56.46780079 -89.77029063 56.46780079 -79.54296875 45.6953125 C-73.41717296 40.45153465 -67.41530514 39.5014092 -59.5625 40 C-59.61277344 38.49373047 -59.61277344 38.49373047 -59.6640625 36.95703125 C-59.29460669 22.56246456 -52.67424299 9.97322596 -42.5625 0 C-30.80515094 -9.7125927 -11.98866538 -8.3739924 0 0 Z " fill="#1C2A3C" transform="translate(657.5625,949)"/>
<path d="M0 0 C7.73379643 5.31698505 13.35999582 11.90436062 16 21 C17.56111831 31.43247332 16.6041395 41.42598816 10.45703125 50.203125 C3.6795554 58.57803795 -5.02571043 63.0523308 -15.6953125 64.3203125 C-25.3927432 64.73473262 -33.04993331 62.04674308 -40.375 55.6875 C-49.26939104 47.03311634 -51.92559517 40.48292767 -52.4375 28.0625 C-52.29107124 19.00344061 -48.80142622 12.21199302 -42.734375 5.59765625 C-30.99220869 -5.21888884 -14.24263529 -8.01148235 0 0 Z " fill="#1B293B" transform="translate(572,619)"/>
<path d="M0 0 C4.44002429 0.8199348 7.79323544 2.47625427 10.52734375 6.1328125 C13.96098813 11.94170193 14.85650897 16.81010665 14.2421875 23.4140625 C13.35904121 26.80378578 12.09320969 29.56304031 9.578125 32.078125 C4.48706747 34.98973315 -2.09629687 34.04503182 -7.7578125 33.4140625 C-12.38712422 31.85750688 -16.2940247 29.8778503 -19.7578125 26.4140625 C-20.31948794 20.83840629 -19.14539452 17.23808768 -16.6328125 12.2890625 C-16.05273438 11.11085938 -15.47265625 9.93265625 -14.875 8.71875 C-11.05638522 2.75832915 -7.26409781 -0.46470659 0 0 Z " fill="#F5F6F6" transform="translate(956.7578125,967.5859375)"/>
<path d="M0 0 C4.97342914 2.26577774 8.7640185 4.87039537 11 10 C12.78029133 15.75072524 13.59155312 23.62025399 10.98828125 29.1484375 C8.88726803 31.73527059 7.1624047 32.9458651 4 34 C-5.55588027 34.87523828 -12.34107752 33.42288182 -20.0625 27.75 C-21.0215625 26.88375 -21.0215625 26.88375 -22 26 C-20.602621 16.00978297 -17.55853842 8.48575129 -9.55078125 2.09375 C-6.24683395 -0.23648991 -4.03321625 -0.44813514 0 0 Z " fill="#F7F7F8" transform="translate(480,967)"/>
<path d="M0 0 C4.50911167 2.17403598 6.85819183 4.49093016 9 9 C10.7742536 14.76942603 11.03428759 21.46599541 8.75 27.0625 C5.95401103 30.15805921 3.85861807 30.9222193 -0.3203125 31.30078125 C-7.92874049 31.32421583 -14.89187299 31.04859669 -22 28 C-23 27 -23 27 -23.25 24.0625 C-23.07444758 15.49554175 -19.83951062 8.20448004 -14 2 C-9.52981291 -0.98012473 -5.24104518 -0.60733142 0 0 Z " fill="#F7F7F8" transform="translate(641,967)"/>
<path d="M0 0 C3.57548545 2.38964605 7.05196574 5.10393149 9 9 C9.98319328 22.68907563 9.98319328 22.68907563 6 28 C2.07348969 32.20697533 -0.97735208 33.85861923 -6.7578125 34.19921875 C-11.79122113 33.75199952 -14.98410987 31.09609198 -18.375 27.4375 C-21.92837029 22.10744457 -21.59059365 16.19303065 -21 10 C-18.84062362 5.52129344 -16.07047061 2.81801812 -12 0 C-7.76218023 -1.41260659 -4.28647049 -1.2631628 0 0 Z " fill="#F6F6F7" transform="translate(853,958)"/>
<path d="M0 0 C4.79642058 2.39821029 7.60178971 5.20357942 10 10 C10.83390678 15.83734744 10.03755325 18.83762572 6.58203125 23.5546875 C3.78398778 26.11092474 1.029235 26.94232735 -2.71875 27.15234375 C-11.15004629 26.5010498 -11.15004629 26.5010498 -14.125 23.5 C-14.74375 22.675 -15.3625 21.85 -16 21 C-16.33 20.67 -16.66 20.34 -17 20 C-17.49929702 14.66325153 -17.93946961 9.70496337 -15.3125 4.9375 C-10.40621148 0.82682584 -6.56126805 -1.14725512 0 0 Z " fill="#1C2A3B" transform="translate(328,923)"/>
<path d="M0 0 C4.5926563 1.79712638 6.74740081 4.66166082 9 9 C9.6506249 14.20499921 8.910372 17.634442 6 22 C2.4967262 25.24693669 -0.32525948 26.30240166 -5 26.5625 C-8.49306424 26.41520211 -10.72073452 25.96506836 -13.5 23.8125 C-17.32080946 19.51408936 -18.2158896 16.75495867 -18.0625 11.0625 C-17.56591365 7.28731514 -16.78045141 5.07372062 -14.0625 2.375 C-9.64713412 -0.83865805 -5.25483055 -0.88474188 0 0 Z " fill="#1C2A3C" transform="translate(836,893)"/>
<path d="M0 0 C4.16884941 2.04785585 6.28187228 3.73164682 8 8 C8.7079536 12.98860331 8.51107824 16.93998587 6.3125 21.5 C2.5366922 25.58195438 -0.59658481 26.12483948 -6 26.4375 C-9.9059608 26.3677507 -10.7692295 26.1778856 -14 23.6875 C-18.09194996 18.18894224 -18.87435773 14.7736388 -18 8 C-13.74326422 -0.21990357 -8.64536193 -1.0127424 0 0 Z " fill="#1A283A" transform="translate(869,893)"/>
<path d="M0 0 C13.53 0 27.06 0 41 0 C41 0.66 41 1.32 41 2 C38.38198425 3.30900788 36.43342287 3.12953694 33.50390625 3.1328125 C31.82844727 3.13474609 31.82844727 3.13474609 30.11914062 3.13671875 C28.94544922 3.13285156 27.77175781 3.12898438 26.5625 3.125 C25.42361328 3.12886719 24.28472656 3.13273437 23.11132812 3.13671875 C21.4184668 3.13478516 21.4184668 3.13478516 19.69140625 3.1328125 C18.67248291 3.13168457 17.65355957 3.13055664 16.60375977 3.12939453 C11.72444862 2.95420078 6.8624041 2.44203674 2 2 C1.67 24.77 1.34 47.54 1 71 C0.67 71 0.34 71 0 71 C0 47.57 0 24.14 0 0 Z " fill="#414E5D" transform="translate(637,307)"/>
<path d="M0 0 C0 0.33 0 0.66 0 1 C-10.23 1 -20.46 1 -31 1 C-31 1.99 -31 2.98 -31 4 C-37.6 4 -44.2 4 -51 4 C-38.56205885 -4.29196076 -14.55483311 -0.17213685 0 0 Z " fill="#3C4959" transform="translate(617,307)"/>
<path d="M0 0 C1.98 0.99 1.98 0.99 4 2 C3.34 2 2.68 2 2 2 C2 9.26 2 16.52 2 24 C2.99 24.33 3.98 24.66 5 25 C3.35 25 1.7 25 0 25 C0 16.75 0 8.5 0 0 Z " fill="#3A4654" transform="translate(690,996)"/>
<path d="M0 0 C1.51400391 0.01740234 1.51400391 0.01740234 3.05859375 0.03515625 C4.07050781 0.04417969 5.08242188 0.05320312 6.125 0.0625 C7.29869141 0.07990234 7.29869141 0.07990234 8.49609375 0.09765625 C5.49609375 2.09765625 5.49609375 2.09765625 2.12109375 2.97265625 C-2.86394772 4.51973809 -5.96385684 7.37128845 -9.50390625 11.09765625 C-9.08875728 6.25425165 -7.04181926 4.28177796 -3.50390625 1.09765625 C-2.50390625 0.09765625 -2.50390625 0.09765625 0 0 Z " fill="#243244" transform="translate(860.50390625,892.90234375)"/>
<path d="M0 0 C1.27230469 0.00902344 2.54460938 0.01804687 3.85546875 0.02734375 C5.31919922 0.04474609 5.31919922 0.04474609 6.8125 0.0625 C7.1425 0.7225 7.4725 1.3825 7.8125 2.0625 C-1.0975 3.0525 -1.0975 3.0525 -10.1875 4.0625 C-10.1875 3.0725 -10.1875 2.0825 -10.1875 1.0625 C-6.62704823 -0.12431726 -3.74941663 -0.03439832 0 0 Z " fill="#273647" transform="translate(956.1875,943.9375)"/>
<path d="M0 0 C2 3 2 3 1.7578125 5.26171875 C1.54898438 6.06222656 1.34015625 6.86273437 1.125 7.6875 C0.92132812 8.49574219 0.71765625 9.30398438 0.5078125 10.13671875 C0.25644531 11.05904297 0.25644531 11.05904297 0 12 C-0.66 12 -1.32 12 -2 12 C-2.33 12.99 -2.66 13.98 -3 15 C-2.35812082 9.86496656 -1.31727753 5.0056546 0 0 Z " fill="#D6D9DD" transform="translate(950,711)"/>
<path d="M0 0 C0.99 0.66 1.98 1.32 3 2 C0.03 3.65 -2.94 5.3 -6 7 C-6.66 6.34 -7.32 5.68 -8 5 C-4.04 2.525 -4.04 2.525 0 0 Z " fill="#223042" transform="translate(511,333)"/>
<path d="M0 0 C0 0.66 0 1.32 0 2 C-4.26616316 3.13764351 -7.56486311 4 -12 4 C-11 2 -11 2 -7.6875 0.875 C-4 0 -4 0 0 0 Z " fill="#303D4D" transform="translate(843,1016)"/>
<path d="M0 0 C0.33 0 0.66 0 1 0 C0.67 2.97 0.34 5.94 0 9 C-0.99 9.33 -1.98 9.66 -3 10 C-2.49287967 6.28111761 -1.88391785 3.26545761 0 0 Z " fill="#2F3E4F" transform="translate(604,963)"/>
<path d="M0 0 C2 1 2 1 3 3 C0.35261084 4.4606285 -0.89448334 5 -4 5 C-4.33 5.66 -4.66 6.32 -5 7 C-5 6.01 -5 5.02 -5 4 C-2.5 1.8125 -2.5 1.8125 0 0 Z " fill="#324152" transform="translate(940,947)"/>
<path d="M0 0 C0.66 0.66 1.32 1.32 2 2 C0.35 3.98 -1.3 5.96 -3 8 C-3.66 7.67 -4.32 7.34 -5 7 C-3.70700306 4.11562221 -2.34058637 2.12780579 0 0 Z " fill="#EFEFF1" transform="translate(901,765)"/>
<path d="M0 0 C1 2 1 2 0.44140625 4.1640625 C0.15136719 4.97617187 -0.13867188 5.78828125 -0.4375 6.625 C-0.72496094 7.44226563 -1.01242187 8.25953125 -1.30859375 9.1015625 C-1.53675781 9.72804688 -1.76492188 10.35453125 -2 11 C-2.33 11 -2.66 11 -3 11 C-3.08096803 9.54257537 -3.13917774 8.08387193 -3.1875 6.625 C-3.22230469 5.81289063 -3.25710938 5.00078125 -3.29296875 4.1640625 C-3.19628906 3.44992187 -3.09960938 2.73578125 -3 2 C-2.01 1.34 -1.02 0.68 0 0 Z " fill="#354251" transform="translate(328,287)"/>
<path d="M0 0 C2.64 0.33 5.28 0.66 8 1 C8 1.99 8 2.98 8 4 C5.69 3.67 3.38 3.34 1 3 C0.67 2.01 0.34 1.02 0 0 Z " fill="#2F3C4C" transform="translate(854,935)"/>
<path d="M0 0 C0.66 0.33 1.32 0.66 2 1 C1.34 2.65 0.68 4.3 0 6 C-0.99 6 -1.98 6 -3 6 C-3.33 6.99 -3.66 7.98 -4 9 C-3.46930939 5.17902761 -2.50298434 2.93828597 0 0 Z " fill="#354454" transform="translate(315,926)"/>
<path d="M0 0 C0.66 0.33 1.32 0.66 2 1 C1.67 1.99 1.34 2.98 1 4 C-1.9375 5.25 -1.9375 5.25 -5 6 C-5.66 5.67 -6.32 5.34 -7 5 C-4.69 3.35 -2.38 1.7 0 0 Z " fill="#313E4E" transform="translate(621,945)"/>
<path d="M0 0 C2 3 2 3 1.625 5.1875 C1.41875 5.785625 1.2125 6.38375 1 7 C-0.32 7.33 -1.64 7.66 -3 8 C-1.125 2.25 -1.125 2.25 0 0 Z " fill="#394758" transform="translate(317,262)"/>
<path d="M0 0 C0.66 0.66 1.32 1.32 2 2 C-0.3125 4.0625 -0.3125 4.0625 -3 6 C-3.99 5.67 -4.98 5.34 -6 5 C-5.195625 4.360625 -4.39125 3.72125 -3.5625 3.0625 C-1.7249496 1.59396498 -1.7249496 1.59396498 0 0 Z " fill="#213043" transform="translate(875,793)"/>
<path d="M0 0 C5.75 1.75 5.75 1.75 8 4 C6.25 4.6875 6.25 4.6875 4 5 C1.75 3.6875 1.75 3.6875 0 2 C0 1.34 0 0.68 0 0 Z " fill="#29384A" transform="translate(535,675)"/>
<path d="M0 0 C0.66 0 1.32 0 2 0 C2.103125 0.639375 2.20625 1.27875 2.3125 1.9375 C2.539375 2.618125 2.76625 3.29875 3 4 C3.99 4.33 4.98 4.66 6 5 C5.34 6.32 4.68 7.64 4 9 C0 2.25 0 2.25 0 0 Z " fill="#2B3748" transform="translate(316,748)"/>
<path d="M0 0 C0.99 0 1.98 0 3 0 C1.25 5.75 1.25 5.75 -1 8 C-1.125 2.25 -1.125 2.25 0 0 Z " fill="#283646" transform="translate(935,748)"/>
<path d="M0 0 C3.35595828 0.59927826 5.37801226 1.84622436 8 4 C5 5 5 5 2.3125 3.6875 C1.549375 3.130625 0.78625 2.57375 0 2 C0 1.34 0 0.68 0 0 Z " fill="#233042" transform="translate(742,329)"/>
<path d="M0 0 C0.6875 1.6875 0.6875 1.6875 1 4 C-0.3125 6.75 -0.3125 6.75 -2 9 C-2.66 9 -3.32 9 -4 9 C-2.94124926 5.59687262 -1.99097846 2.98646769 0 0 Z " fill="#333F50" transform="translate(322,253)"/>
<path d="M0 0 C-1 3 -1 3 -3 4 C-4.99960012 4.039992 -7.00047242 4.04346799 -9 4 C-6.43425105 1.43425105 -3.68548192 0 0 0 Z " fill="#2B3A4D" transform="translate(404,184)"/>
<path d="M0 0 C0.66 0.33 1.32 0.66 2 1 C2.33 1.99 2.66 2.98 3 4 C2.01 5.485 2.01 5.485 1 7 C0.34 7 -0.32 7 -1 7 C-0.67 4.69 -0.34 2.38 0 0 Z " fill="#E4E6E9" transform="translate(387,1018)"/>
<path d="M0 0 C0.33 0 0.66 0 1 0 C1 2.31 1 4.62 1 7 C0.01 7.33 -0.98 7.66 -2 8 C-1.125 2.25 -1.125 2.25 0 0 Z " fill="#293848" transform="translate(508,451)"/>
</svg>
