<svg width="28" height="28" viewBox="0 0 28 28" fill="none" xmlns="http://www.w3.org/2000/svg">
<g filter="url(#filter0_d_39_215)">
<path d="M20.7031 3.28173C21.8287 2.11917 23.6884 2.10413 24.8326 3.24834C25.9455 4.36119 25.9662 6.15899 24.8793 7.29719L21.6375 10.6919C21.3834 10.958 21.2563 11.091 21.1781 11.2469C21.1087 11.3848 21.0675 11.5351 21.0567 11.6891C21.0445 11.8631 21.0859 12.0423 21.1686 12.4008L23.1845 21.1363C23.2694 21.5043 23.3119 21.6883 23.2982 21.8663C23.286 22.0238 23.242 22.1772 23.1688 22.3172C23.0861 22.4754 22.9526 22.6089 22.6856 22.876L22.253 23.3085C21.5458 24.0157 21.1923 24.3693 20.8304 24.4333C20.5144 24.4892 20.1893 24.4125 19.9316 24.2211C19.6366 24.002 19.4785 23.5277 19.1622 22.5789L16.8175 15.5447L12.9146 19.4476C12.6816 19.6806 12.5652 19.7971 12.4872 19.9342C12.4182 20.0558 12.3716 20.1887 12.3496 20.3267C12.3247 20.4825 12.3429 20.6462 12.3793 20.9737L12.5936 22.9026C12.63 23.2301 12.6482 23.3938 12.6233 23.5496C12.6013 23.6876 12.5547 23.8206 12.4857 23.9421C12.4077 24.0793 12.2913 24.1957 12.0583 24.4287L11.8279 24.6591C11.276 25.211 11 25.487 10.6934 25.5669C10.4244 25.637 10.1392 25.6088 9.88923 25.4873C9.6042 25.3488 9.38773 25.0241 8.95478 24.3746L7.12507 21.6301C7.04772 21.514 7.00905 21.456 6.96415 21.4034C6.92426 21.3567 6.88074 21.3132 6.83401 21.2733C6.78139 21.2284 6.72338 21.1897 6.60735 21.1124L3.86279 19.2826C3.21336 18.8497 2.88865 18.6332 2.75015 18.3482C2.62866 18.0982 2.60043 17.813 2.67052 17.5441C2.75044 17.2374 3.02639 16.9615 3.57829 16.4096L3.80872 16.1791C4.04168 15.9462 4.15817 15.8297 4.29534 15.7518C4.41687 15.6827 4.5498 15.6361 4.68782 15.6141C4.84361 15.5892 5.00734 15.6074 5.33479 15.6438L7.26374 15.8581C7.59119 15.8945 7.75492 15.9127 7.91071 15.8879C8.04872 15.8659 8.18166 15.8192 8.30319 15.7502C8.44036 15.6723 8.55685 15.5558 8.78981 15.3228L12.6927 11.4199L5.65853 9.07523C4.70976 8.75897 4.23538 8.60085 4.01629 8.30579C3.82497 8.04814 3.74823 7.72307 3.80413 7.40706C3.86814 7.04517 4.22172 6.69159 4.92889 5.98442L5.36146 5.55185C5.6285 5.28481 5.76202 5.15129 5.92021 5.06859C6.06022 4.99538 6.21364 4.95138 6.37117 4.93925C6.54915 4.92555 6.73314 4.968 7.10112 5.05292L15.8035 7.06115C16.1651 7.1446 16.3459 7.18633 16.5204 7.17391C16.689 7.16193 16.8529 7.11348 17.0009 7.03191C17.1541 6.94743 17.2832 6.81411 17.5414 6.54749L20.7031 3.28173Z" stroke="white" stroke-width="1.5" stroke-linecap="round" stroke-linejoin="round" shape-rendering="crispEdges"/>
</g>
<defs>
<filter id="filter0_d_39_215" x="-2.11719" y="-4.3501" width="32.5488" height="32.7046" filterUnits="userSpaceOnUse" color-interpolation-filters="sRGB">
<feFlood flood-opacity="0" result="BackgroundImageFix"/>
<feColorMatrix in="SourceAlpha" type="matrix" values="0 0 0 0 0 0 0 0 0 0 0 0 0 0 0 0 0 0 127 0" result="hardAlpha"/>
<feOffset dy="-2"/>
<feGaussianBlur stdDeviation="2"/>
<feComposite in2="hardAlpha" operator="out"/>
<feColorMatrix type="matrix" values="0 0 0 0 0 0 0 0 0 0 0 0 0 0 0 0 0 0 0.25 0"/>
<feBlend mode="normal" in2="BackgroundImageFix" result="effect1_dropShadow_39_215"/>
<feBlend mode="normal" in="SourceGraphic" in2="effect1_dropShadow_39_215" result="shape"/>
</filter>
</defs>
</svg>
