<svg width="28" height="27" viewBox="0 0 28 27" fill="none" xmlns="http://www.w3.org/2000/svg">
<g filter="url(#filter0_d_39_10)">
<path d="M25.6673 9.9165H2.33398M2.33398 14.5832H6.47177C7.102 14.5832 7.41711 14.5832 7.72181 14.6375C7.99226 14.6857 8.2561 14.7656 8.50788 14.8755C8.79153 14.9993 9.05372 15.1741 9.5781 15.5237L10.2565 15.976C10.7809 16.3256 11.0431 16.5004 11.3268 16.6242C11.5785 16.7341 11.8424 16.814 12.1128 16.8622C12.4175 16.9165 12.7326 16.9165 13.3629 16.9165H14.6384C15.2687 16.9165 15.5838 16.9165 15.8885 16.8622C16.1589 16.814 16.4228 16.7341 16.6745 16.6242C16.9582 16.5004 17.2204 16.3256 17.7448 15.976L18.4232 15.5237C18.9476 15.1741 19.2098 14.9993 19.4934 14.8755C19.7452 14.7656 20.009 14.6857 20.2795 14.6375C20.5842 14.5832 20.8993 14.5832 21.5295 14.5832H25.6673M2.33398 8.39984L2.33398 19.5998C2.33398 20.9066 2.33398 21.56 2.5883 22.0591C2.81201 22.4982 3.16896 22.8551 3.60801 23.0789C4.10713 23.3332 4.76053 23.3332 6.06732 23.3332L21.934 23.3332C23.2408 23.3332 23.8942 23.3332 24.3933 23.0789C24.8323 22.8551 25.1893 22.4982 25.413 22.0591C25.6673 21.56 25.6673 20.9066 25.6673 19.5998V8.39984C25.6673 7.09305 25.6673 6.43966 25.413 5.94053C25.1893 5.50148 24.8323 5.14453 24.3933 4.92082C23.8942 4.66651 23.2408 4.66651 21.934 4.66651L6.06732 4.6665C4.76053 4.6665 4.10713 4.6665 3.60801 4.92082C3.16896 5.14453 2.81201 5.50148 2.5883 5.94053C2.33398 6.43965 2.33398 7.09305 2.33398 8.39984Z" stroke="white" stroke-width="1.5" stroke-linecap="round" stroke-linejoin="round" shape-rendering="crispEdges"/>
</g>
<defs>
<filter id="filter0_d_39_10" x="-2.41602" y="-2.0835" width="32.834" height="28.1665" filterUnits="userSpaceOnUse" color-interpolation-filters="sRGB">
<feFlood flood-opacity="0" result="BackgroundImageFix"/>
<feColorMatrix in="SourceAlpha" type="matrix" values="0 0 0 0 0 0 0 0 0 0 0 0 0 0 0 0 0 0 127 0" result="hardAlpha"/>
<feOffset dy="-2"/>
<feGaussianBlur stdDeviation="2"/>
<feComposite in2="hardAlpha" operator="out"/>
<feColorMatrix type="matrix" values="0 0 0 0 0 0 0 0 0 0 0 0 0 0 0 0 0 0 0.25 0"/>
<feBlend mode="normal" in2="BackgroundImageFix" result="effect1_dropShadow_39_10"/>
<feBlend mode="normal" in="SourceGraphic" in2="effect1_dropShadow_39_10" result="shape"/>
</filter>
</defs>
</svg>
