<svg width="23" height="32" viewBox="0 0 23 32" fill="none" xmlns="http://www.w3.org/2000/svg">
<path d="M7.5625 30.1667H14.8542M8.29167 12.6667H14.125M11.2083 12.6667L11.2083 21.4167M15.5833 20.4343C19.0322 18.7959 21.4167 15.2806 21.4167 11.2083C21.4167 5.57043 16.8462 1 11.2083 1C5.57043 1 1 5.57043 1 11.2083C1 15.2806 3.38445 18.7959 6.83333 20.4343V21.4167C6.83333 22.7757 6.83333 23.4552 7.05535 23.9912C7.35137 24.7058 7.91917 25.2736 8.63384 25.5696C9.16984 25.7917 9.84934 25.7917 11.2083 25.7917C12.5673 25.7917 13.2468 25.7917 13.7828 25.5696C14.4975 25.2736 15.0653 24.7058 15.3613 23.9912C15.5833 23.4552 15.5833 22.7757 15.5833 21.4167V20.4343Z" stroke="white" stroke-opacity="0.5" stroke-width="2" stroke-linecap="round" stroke-linejoin="round"/>
</svg>
