<svg xmlns="http://www.w3.org/2000/svg" viewBox="0 0 576 576"><!--! Font Awesome Pro 7.1.0 by @fontawesome - https://fontawesome.com License - https://fontawesome.com/license (Commercial License) Copyright 2025 Fonticons, Inc. --><path fill="currentColor" d="M504 163C504.4 135.8 489.3 110.2 464.2 97.6L320.2 25.6C299.9 15.5 276.1 15.5 255.8 25.6L111.8 97.6C86.7 110.2 71.6 135.8 72 163L72 198C72 203.5 72.6 209 73.9 214.5C78.6 234.4 91.2 250.6 108 260.3L108 351.6C86.5 364.1 72 387.3 72 413.9L72 450C72 489.8 104.2 522 144 522L432 522C471.8 522 504 489.8 504 450L504 414C504 383.8 485.4 357.9 459 347.2L459 264.7C480.1 256.1 496.6 237.8 502.1 214.5C503.4 209 504 203.4 504 198L504 163zM304.1 57.8L448.1 129.8C460.5 136 468 148.6 468 162C468 181.5 451.6 198 432 198L144 198C124.4 198 108 181.5 108 162C108 148.6 115.5 136 127.9 129.8L271.9 57.8C282 52.7 294 52.7 304.1 57.8zM468 414C468 433.9 451.9 450 432 450L144 450C124.1 450 108 433.9 108 414C108 394.1 124.1 378 144 378L432 378C451.9 378 468 394.1 468 414zM144 342C144 306 144 270 144 234L216 234L216 342L144 342zM360 234L423 234L423 342L360 342L360 234zM324 234L324 342L252 342L252 234L324 234z"/></svg>