<svg xmlns="http://www.w3.org/2000/svg" viewBox="0 0 576 576"><!--! Font Awesome Pro 7.1.0 by @fontawesome - https://fontawesome.com License - https://fontawesome.com/license (Commercial License) Copyright 2025 Fonticons, Inc. --><path fill="currentColor" d="M320.2 61.6C299.9 51.5 276.1 51.5 255.8 61.6L111.8 133.6C81.9 148.5 66.3 182 73.9 214.5C78.6 234.4 91.3 250.7 108 260.4L108 387.7C86.5 400.1 72 423.4 72 450.1C72 489.9 104.2 522.1 144 522.1L432 522.1C471.8 522.1 504 489.9 504 450.1C504 419.9 485.4 394 459 383.3L459 264.8C480.1 256.2 496.6 237.9 502.1 214.6C509.8 182.1 494.1 148.6 464.2 133.7L320.2 61.7zM271.9 93.8C282 88.7 294 88.7 304.1 93.8L448.1 165.8C463 173.3 470.9 190 467 206.3C463.1 222.6 448.7 234 432 234L144 234C127.3 234 112.8 222.5 109 206.3C105.2 190.1 113 173.3 127.9 165.8L271.9 93.8zM423 270L423 378L360 378L360 270L423 270zM324 378L252 378L252 270L324 270L324 378zM216 378L144 378L144 270L216 270L216 378zM108 450C108 430.1 124.1 414 144 414L432 414C451.9 414 468 430.1 468 450C468 469.9 451.9 486 432 486L144 486C124.1 486 108 469.9 108 450z"/></svg>