<svg width="24" height="24" viewBox="0 0 24 24" fill="none" xmlns="http://www.w3.org/2000/svg">
<g filter="url(#filter0_d_74_2234)">
<path d="M9 3H4C3.44772 3 3 3.44772 3 4V11C3 11.5523 3.44772 12 4 12H9C9.55228 12 10 11.5523 10 11V4C10 3.44772 9.55228 3 9 3Z" stroke="white" stroke-width="1.5" stroke-linecap="round" stroke-linejoin="round" shape-rendering="crispEdges"/>
<path d="M20 3H15C14.4477 3 14 3.44772 14 4V7C14 7.55228 14.4477 8 15 8H20C20.5523 8 21 7.55228 21 7V4C21 3.44772 20.5523 3 20 3Z" stroke="white" stroke-width="1.5" stroke-linecap="round" stroke-linejoin="round" shape-rendering="crispEdges"/>
<path d="M20 12H15C14.4477 12 14 12.4477 14 13V20C14 20.5523 14.4477 21 15 21H20C20.5523 21 21 20.5523 21 20V13C21 12.4477 20.5523 12 20 12Z" stroke="white" stroke-width="1.5" stroke-linecap="round" stroke-linejoin="round" shape-rendering="crispEdges"/>
<path d="M9 16H4C3.44772 16 3 16.4477 3 17V20C3 20.5523 3.44772 21 4 21H9C9.55228 21 10 20.5523 10 20V17C10 16.4477 9.55228 16 9 16Z" stroke="white" stroke-width="1.5" stroke-linecap="round" stroke-linejoin="round" shape-rendering="crispEdges"/>
</g>
<defs>
<filter id="filter0_d_74_2234" x="-1.75" y="-3.75" width="27.5" height="27.5" filterUnits="userSpaceOnUse" color-interpolation-filters="sRGB">
<feFlood flood-opacity="0" result="BackgroundImageFix"/>
<feColorMatrix in="SourceAlpha" type="matrix" values="0 0 0 0 0 0 0 0 0 0 0 0 0 0 0 0 0 0 127 0" result="hardAlpha"/>
<feOffset dy="-2"/>
<feGaussianBlur stdDeviation="2"/>
<feComposite in2="hardAlpha" operator="out"/>
<feColorMatrix type="matrix" values="0 0 0 0 0 0 0 0 0 0 0 0 0 0 0 0 0 0 0.25 0"/>
<feBlend mode="normal" in2="BackgroundImageFix" result="effect1_dropShadow_74_2234"/>
<feBlend mode="normal" in="SourceGraphic" in2="effect1_dropShadow_74_2234" result="shape"/>
</filter>
</defs>
</svg>
